<?xml version="1.0" encoding="UTF-8" standalone="no"?>
<svg width="72px" height="27px" viewBox="0 0 72 27" version="1.1" xmlns="http://www.w3.org/2000/svg" xmlns:xlink="http://www.w3.org/1999/xlink" xmlns:sketch="http://www.bohemiancoding.com/sketch/ns">
    <!-- Generator: Sketch 3.3.3 (12072) - http://www.bohemiancoding.com/sketch -->
    <title>ally logo</title>
    <desc>Created with Sketch.</desc>
    <defs></defs>
    <g id="Page-1" stroke="none" stroke-width="1" fill="none" fill-rule="evenodd" sketch:type="MSPage">
        <g id="Imported-Layers" sketch:type="MSLayerGroup" fill="#FFFFFF">
            <path d="M59.8448895,4.68847059 C60.5686154,4.68847059 60.7121119,5.13893382 60.9488559,5.73422426 L64.0692252,13.6739118 C64.1000392,13.7576912 64.1537119,13.8094081 64.2087944,13.8094081 C64.2625678,13.8094081 64.3178517,13.7576912 64.3484643,13.6739118 L67.2304783,5.91161029 C67.6206881,4.876875 67.7935888,4.68847059 68.595558,4.68847059 L71.2621762,4.68847059 C72.3910154,4.68847059 71.9130965,5.58135662 71.5367832,6.55633456 L66.3530853,19.2343235 C65.0578909,22.1484375 63.8130462,24.1592426 62.3905678,25.3611397 C61.753242,25.8995515 61.2651524,26.1745147 60.2040839,26.7573971 C59.7727888,26.9942426 59.1927608,26.9808419 58.951586,26.5725662 L58.1345119,24.6431581 C57.9374434,24.1488199 57.7359441,23.7152316 58.1890909,23.3240294 C58.5261315,23.0331838 59.1356643,22.7936581 59.6321119,22.4356103 C60.8365762,21.5669449 61.4328168,20.5943493 62.0554406,18.9252132 L56.5223161,5.58493015 C56.3674406,5.22896691 56.549807,4.81801103 56.920179,4.68847059 L59.8448895,4.68847059" id="Fill-1" sketch:type="MSShapeGroup"></path>
            <path d="M53.7563077,22.7435294 L51.107614,22.7435294 C50.6724923,22.7435294 50.3197427,22.3958051 50.3197427,21.9668824 L50.3197427,0.826080882 C50.3197427,0.397158088 50.6724923,0.0495330882 51.107614,0.0495330882 L53.7563077,0.0495330882 C54.1914294,0.0495330882 54.544179,0.397158088 54.544179,0.826080882 L54.544179,21.9668824 C54.544179,22.3958051 54.1914294,22.7435294 53.7563077,22.7435294" id="Fill-2" sketch:type="MSShapeGroup"></path>
            <path d="M46.884386,22.7435294 L44.2356923,22.7435294 C43.8005706,22.7435294 43.447821,22.3958051 43.447821,21.9668824 L43.447821,0.826080882 C43.447821,0.397158088 43.8005706,0.0495330882 44.2356923,0.0495330882 L46.884386,0.0495330882 C47.3195077,0.0495330882 47.6722573,0.397158088 47.6722573,0.826080882 L47.6722573,21.9668824 C47.6722573,22.3958051 47.3195077,22.7435294 46.884386,22.7435294" id="Fill-3" sketch:type="MSShapeGroup"></path>
            <path d="M10.5722182,0.0494338235 C4.75059021,0.0494338235 0.0145006993,4.75507721 0.0145006993,10.5389338 C0.0145006993,17.1156176 8.01203916,24.6332316 10.5722182,26.8229118 C13.1322965,24.6332316 21.129835,17.1669375 21.129835,10.5389338 C21.129835,4.75507721 16.3937455,0.0494338235 10.5722182,0.0494338235 M11.3432727,18.4576765 C9.26282517,18.6379412 7.3297007,18.047614 5.80048112,16.944386 C4.14105734,15.7472537 4.99931748,13.1562463 7.0555972,13.1562463 L10.124207,13.1562463 C10.3739413,13.1562463 10.5764476,13.3558676 10.5764476,13.6021434 L10.5764476,15.3552574 C10.5764476,15.5460441 10.8105734,15.6415368 10.9473231,15.506636 L15.7059692,10.8159816 C15.9164308,10.6084191 15.9164308,10.2719118 15.7059692,10.0644485 L10.9473231,5.37359559 C10.8105734,5.23869485 10.5764476,5.3341875 10.5764476,5.52497426 L10.5764476,7.27808824 C10.5764476,7.52436397 10.3739413,7.72408456 10.124207,7.72408456 L7.0558993,7.72408456 C5.00636643,7.72408456 4.13783497,5.13943015 5.78980699,3.94358824 C7.13837203,2.96731985 8.80242797,2.39049265 10.6050462,2.39049265 C15.4229035,2.39049265 19.266193,6.50342647 18.7188923,11.361739 C18.2934378,15.138761 15.183642,18.1248419 11.3432727,18.4576765" id="Fill-4" sketch:type="MSShapeGroup"></path>
            <path d="M34.5052196,11.8156765 L36.5489119,11.8156765 L36.5489119,11.5131176 C36.5489119,9.66044118 35.3859357,8.71613603 33.3364028,8.61915441 C32.1984,8.56535294 31.5065958,8.67305515 30.8916252,8.78899632 C29.8498909,8.98534191 29.4783105,9.43580515 29.2397538,8.52594485 L28.5777566,6.57519485 C28.2975105,5.71595956 29.1452979,5.24157353 30.9511385,4.93534191 C31.9852196,4.75994118 32.502814,4.78009191 33.5920783,4.80252574 C37.9620252,4.89226103 40.7574378,7.50451103 40.7574378,11.3446654 L40.7574378,21.0430257 C40.7574378,22.0195919 40.9537007,22.7080919 39.9623161,22.7080919 L37.3830042,22.7080919 C36.5489119,22.7080919 36.5397483,22.3908419 36.5397483,21.7806618 L36.5399497,21.5767721 C35.0986406,22.825125 33.9244867,22.7038235 32.0784671,22.7038235 C28.9575944,22.7038235 27.318814,19.8098603 27.318814,17.339261 C27.318814,14.2908419 29.9608615,11.8156765 34.5052196,11.8156765 M33.7035524,19.0104816 C34.7276643,19.0104816 36.0373594,18.5924779 36.5489119,17.8094779 L36.5489119,15.1832316 L34.8805259,15.1832316 C32.9326993,15.1832316 31.687351,15.6424301 31.687351,17.1914559 C31.687351,18.3379632 32.3710993,19.0104816 33.7035524,19.0104816" id="Fill-5" sketch:type="MSShapeGroup"></path>
        </g>
    </g>
</svg>