<?xml version="1.0" encoding="utf-8"?>
<!-- Generator: Adobe Illustrator 18.1.1, SVG Export Plug-In . SVG Version: 6.00 Build 0)  -->
<svg version="1.1" id="Layer_1" xmlns="http://www.w3.org/2000/svg" xmlns:xlink="http://www.w3.org/1999/xlink" x="0px" y="0px"
	 viewBox="0 0 37 37" enable-background="new 0 0 37 37" xml:space="preserve">
<g>
	<g>
		<g>
			<g>
				<polygon fill="#ff9433" points="381.5,33.8 371.7,33.8 371.7,31.3 369.9,31.3 369.9,35.7 383.4,35.7 383.4,31.3 381.5,31.3 				
					"/>
				<path fill="#ff9433" d="M388.5,7C388.5,7,388.5,7,388.5,7C388.5,7,388.5,7,388.5,7c0-0.1,0-0.2,0-0.2c0,0,0,0,0,0
					c-0.4-2.6-5.6-5.5-11.8-5.5c-6.2,0-11.4,2.9-11.8,5.5c0,0,0,0,0,0c-0.5,7.8-0.5,11.7,0.2,19.5c0.1,1.4,1.2,2.7,2.5,2.9
					c7.4,0.8,11.1,0.8,18.5,0c1.2-0.1,2.3-1.4,2.5-2.9C389,18.6,389,14.8,388.5,7z M367.2,16.4V7.2h0c0.2-1.6,3.8-2.9,8.5-3.1v13.2
					h-7.6C367.6,17.3,367.2,16.9,367.2,16.4z M370,26.6c-1,0-1.8-0.8-1.8-1.8c0-1,0.8-1.8,1.8-1.8s1.8,0.8,1.8,1.8
					C371.8,25.8,371,26.6,370,26.6z M382.8,26.6c-1,0-1.8-0.8-1.8-1.8c0-1,0.8-1.8,1.8-1.8c1,0,1.8,0.8,1.8,1.8
					C384.7,25.8,383.8,26.6,382.8,26.6z M386.1,7.3v9.1c0,0.5-0.4,0.8-0.9,0.8h-7.6V4.1c4.7,0.2,8.3,1.5,8.5,3.1h0V7.3
					C386.1,7.3,386.1,7.3,386.1,7.3C386.1,7.3,386.1,7.3,386.1,7.3z"/>
			</g>
			<g>
				<path fill="#ff9433" d="M298.5,7.1C298.5,7.1,298.5,7.1,298.5,7.1C298.5,7.1,298.5,7,298.5,7.1c0-0.1,0-0.2,0-0.2c0,0,0,0,0,0
					c-0.4-2.6-5.5-5.4-11.6-5.4c-6.1,0-11.2,2.8-11.6,5.4c0,0,0,0,0,0c-0.5,7.6-0.5,11.5,0.2,19.1c0.1,1.4,1.2,2.7,2.4,2.8
					c7.3,0.8,10.9,0.8,18.1,0c1.2-0.1,2.3-1.4,2.4-2.8C299,18.4,299,14.7,298.5,7.1z M280.5,26.4c-1,0-1.8-0.8-1.8-1.8
					c0-1,0.8-1.8,1.8-1.8c1,0,1.8,0.8,1.8,1.8C282.3,25.5,281.5,26.4,280.5,26.4z M293.3,26.4c-1,0-1.8-0.8-1.8-1.8
					c0-1,0.8-1.8,1.8-1.8s1.8,0.8,1.8,1.8C295.1,25.5,294.3,26.4,293.3,26.4z M296.6,11.8L296.6,11.8c-0.2,2.8-4.5,5-9.8,5
					s-9.5-2.2-9.7-5h0v-0.1c0,0,0,0,0,0c0,0,0,0,0,0V8.1c0-0.8,0.4-1.4,0.9-1.4h17.6c0.5,0,0.9,0.6,0.9,1.4V11.8z"/>
				<polygon fill="#ff9433" points="291.8,33.8 282,33.8 282,31.3 280.1,31.3 280.1,35.7 293.6,35.7 293.6,31.3 291.8,31.3 				"/>
			</g>
			<g>
				<polygon fill="#ff9433" points="471.4,33.8 461.7,33.8 461.7,31.3 459.8,31.3 459.8,35.7 473.3,35.7 473.3,31.3 471.4,31.3 				
					"/>
				<path fill="#ff9433" d="M478.6,7.1C478.6,7.1,478.6,7.1,478.6,7.1C478.6,7,478.6,7,478.6,7.1c0-0.1,0-0.2,0-0.2c0,0,0,0,0,0
					c-0.4-2.7-5.7-5.6-11.9-5.6c-6.2,0-11.5,2.9-11.9,5.6c0,0,0,0,0,0c-0.5,7.8-0.5,11.7,0.2,19.6c0.1,1.4,1.2,2.7,2.5,2.9
					c7.4,0.8,11.2,0.8,18.6,0c1.2-0.1,2.4-1.4,2.5-2.9C479.1,18.7,479.1,14.8,478.6,7.1z M462.1,4.3h9.2v1.9h-9.2V4.3z M456.8,18.6
					L456.8,18.6L456.8,18.6c0-0.1,0-0.1,0-0.1c0,0,0,0,0,0V9.3c0-0.5,0.4-0.9,1-0.9h8v13.3C460.8,21.5,457,20.2,456.8,18.6z
					 M460.1,26.8c-1,0-1.9-0.8-1.9-1.9c0-1,0.8-1.9,1.9-1.9s1.9,0.8,1.9,1.9C462,26,461.1,26.8,460.1,26.8z M473.3,26.8
					c-1,0-1.9-0.8-1.9-1.9c0-1,0.8-1.9,1.9-1.9c1,0,1.9,0.8,1.9,1.9C475.2,26,474.3,26.8,473.3,26.8z M476.6,18.6L476.6,18.6
					c-0.2,1.6-4.1,3-9,3.1V8.4h8c0.5,0,1,0.4,1,0.9V18.6z"/>
			</g>
			<g>
				<path fill="#ff9433" d="M-140.3,20.8c-0.8-2.7-1.2-4.1-2.1-6.8c0,0,0,0,0,0c0,0,0,0,0,0c0,0,0,0,0-0.1c0,0,0,0,0,0
					c-0.2-1.1-4-2.1-8.6-2.1c-4.6,0-8.4,1.1-8.6,2.1c0,0,0,0,0,0c-0.9,2.8-1.4,4.2-2.1,6.9c-1.6,0.3-2.9,1.7-2.8,3.4
					c0.1,2.1,0.2,3.2,0.4,5.4c0.1,1.5,1.2,2.8,2.5,3.3v1.7c0,0.6,0.5,1.1,1.1,1.1h1.7c0.6,0,1.1-0.5,1.1-1.1v-1.3
					c5.1,0.4,8.6,0.4,13.7,0v1.3c0,0.6,0.5,1.1,1.1,1.1h1.7c0.6,0,1.1-0.5,1.1-1.1v-1.7c1.3-0.5,2.4-1.8,2.5-3.3
					c0.2-2.1,0.3-3.2,0.4-5.4C-137.4,22.5-138.7,21.1-140.3,20.8z M-157.8,15.6L-157.8,15.6c0.1-0.8,3.1-1.5,6.6-1.5
					c3.6,0,6.5,0.7,6.6,1.5h0v0c0,0,0,0,0,0s0,0,0,0l1.6,5.4c0,0.2-0.3,0.4-0.6,0.4l-15.1,0c-0.4,0-0.6-0.2-0.6-0.4L-157.8,15.6z
					 M-159.5,27.4c-1,0-1.8-0.8-1.8-1.8c0-1,0.8-1.8,1.8-1.8c1,0,1.8,0.8,1.8,1.8C-157.6,26.5-158.5,27.4-159.5,27.4z M-147.6,30.6
					h-7v-2.3h7V30.6z M-142.7,23.7c1,0,1.8,0.8,1.8,1.8c0,1-0.8,1.8-1.8,1.8s-1.8-0.8-1.8-1.8C-144.6,24.5-143.8,23.7-142.7,23.7z"
					/>
				<path fill="#ff9433" d="M-148.2,10.8c0-0.3,0-0.5,0-0.8c0-1.2-0.9-2.2-1.9-2.2c-0.8,0-1.2,0-1.9,0c-1,0-1.9,1-1.9,2.2
					c0,0.3,0,0.5,0,0.8c0.9-0.1,1.9-0.2,2.9-0.2C-150.1,10.7-149.1,10.7-148.2,10.8z"/>
			</g>
			<g>
				<polygon fill="#ff9433" points="114.3,33.8 104.8,33.8 104.8,31.4 102.9,31.4 102.9,35.7 116.2,35.7 116.2,31.4 114.3,31.4 				
					"/>
				<path fill="#ff9433" d="M122,10.5C122,10.5,122,10.5,122,10.5C122,10.5,122,10.5,122,10.5c0-0.1,0-0.2,0-0.2c0,0,0,0,0,0
					c-0.4-2.6-5.4-5.4-11.5-5.7V2.8h5.6V1h-12.9v1.8h5.6v1.8c-6.1,0.3-11.1,3.1-11.5,5.7c0,0,0,0,0,0c-0.5,7.6-0.5,8.1,0.2,15.7
					c0.1,1.5,1.3,2.8,2.6,3c7.7,0.8,11.6,0.8,19.3,0c1.3-0.1,2.4-1.5,2.6-3C122.4,18.5,122.5,18.1,122,10.5z M102.1,26.3
					c-1,0-1.8-0.8-1.8-1.8s0.8-1.8,1.8-1.8s1.8,0.8,1.8,1.8S103.1,26.3,102.1,26.3z M117.1,26.3c-1,0-1.8-0.8-1.8-1.8
					s0.8-1.8,1.8-1.8c1,0,1.8,0.8,1.8,1.8S118.1,26.3,117.1,26.3z M119.2,10.8v4.1c0,0,0,0.1,0,0.1v1.5h0c-0.2,1.8-4.4,3.2-9.6,3.2
					c-5.2,0-9.4-1.4-9.6-3.2h0v-0.1c0,0,0,0,0,0s0,0,0,0v-4.1c0,0,0-0.1,0-0.1v-1.5h0c0.2-1.8,4.4-3.9,9.6-3.9s9.5,2.1,9.7,3.9h0
					V10.8C119.2,10.7,119.2,10.7,119.2,10.8C119.2,10.8,119.2,10.8,119.2,10.8z"/>
			</g>
			<g>
				<polygon fill="#ff9433" points="198.6,31.3 195.6,31.3 195.6,33.9 190.7,33.9 190.7,35.7 203.6,35.7 203.6,33.9 198.6,33.9 				
					"/>
				<path fill="#ff9433" d="M209.4,7.4C209.4,7.4,209.4,7.4,209.4,7.4C209.4,7.4,209.4,7.4,209.4,7.4c0-0.1,0-0.2,0-0.2c0,0,0,0,0,0
					c-0.4-2.9-5.8-6-12.2-6c-6.4,0-11.8,3.1-12.2,6c0,0,0,0,0,0c-0.5,7.6-0.5,11.3,0.2,18.9c0.1,1.6,1.3,3,2.6,3.1
					c7.6,0.8,11.4,0.8,19,0c1.3-0.1,2.4-1.5,2.6-3.1C209.8,18.6,209.8,14.9,209.4,7.4z M190.7,26.9c-1,0-1.8-0.8-1.8-1.8
					c0-1,0.8-1.8,1.8-1.8c1,0,1.8,0.8,1.8,1.8C192.5,26.1,191.7,26.9,190.7,26.9z M203.5,26.9c-1,0-1.8-0.8-1.8-1.8
					c0-1,0.8-1.8,1.8-1.8c1,0,1.8,0.8,1.8,1.8C205.4,26.1,204.6,26.9,203.5,26.9z M206.9,9.4v6.9h0c-0.2,1.9-4.5,3.4-9.7,3.4
					s-9.5-1.5-9.7-3.4h0v-0.1c0,0,0,0,0,0c0,0,0,0,0,0v-1.7c0,0,0,0,0,0V7.6h0c0.2-1.9,4.5-4.1,9.7-4.1s9.5,2.2,9.7,4.1h0v0.1
					c0,0,0,0,0,0c0,0,0,0,0,0L206.9,9.4C206.9,9.4,206.9,9.4,206.9,9.4z"/>
			</g>
			<path fill="#ff9433" d="M-65.8,20.8c-0.8-2.7-1.3-4.1-2.3-6.8c0,0,0,0,0,0c0,0,0,0,0,0c0,0,0,0,0-0.1c0,0,0,0,0,0
				c-0.2-1.1-3.9-2.2-8.3-2.2c-4.4,0-8.1,1.1-8.3,2.2c0,0,0,0,0,0c-1,2.8-1.4,4.2-2.3,6.9c-1.6,0.3-2.9,1.7-2.8,3.5
				c0.1,2.1,0.1,3.2,0.3,5.4c0.2,1.5,1.2,2.8,2.5,3.2v1.8c0,0.6,0.5,1.1,1.1,1.1h1.7c0.6,0,1.1-0.5,1.1-1.1v-1.4
				c5,0.3,8.5,0.3,13.5,0v1.4c0,0.6,0.5,1.1,1.1,1.1h1.7c0.6,0,1.1-0.5,1.1-1.1v-1.8c1.3-0.4,2.4-1.8,2.5-3.2
				c0.2-2.1,0.3-3.2,0.3-5.4C-62.9,22.5-64.2,21.1-65.8,20.8z M-83,15.8L-83,15.8c0.1-0.8,3-1.5,6.6-1.5c3.5,0,6.4,0.7,6.5,1.5h0v0
				c0,0,0,0,0,0c0,0,0,0,0,0l1.5,5.4c0,0.2-0.3,0.4-0.6,0.4l-14.9,0c-0.4,0-0.6-0.2-0.6-0.4L-83,15.8z M-84.8,27.3
				c-1,0-1.8-0.8-1.8-1.8c0-1,0.8-1.8,1.8-1.8c1,0,1.8,0.8,1.8,1.8C-83,26.5-83.8,27.3-84.8,27.3z M-73,30.6h-6.9v-2.3h6.9V30.6z
				 M-68.1,27.3c-1,0-1.8-0.8-1.8-1.8c0-1,0.8-1.8,1.8-1.8s1.8,0.8,1.8,1.8C-66.2,26.5-67.1,27.3-68.1,27.3z"/>
			<rect x="845.6" y="1.3" fill="#ff9433" width="14.4" height="3.6"/>
			<g>
				<path fill="#ff9433" d="M853.8,23.1c-0.8,0-1.2,0-2,0c0-6.2,0-9.3,0-15.5c0.8,0,1.1,0,1.9,0C853.8,13.8,853.8,16.9,853.8,23.1z"
					/>
				<path fill="#ff9433" d="M869.7,18c-1.6-0.4-2.3-0.6-3.9-1c-0.1-3.2-0.2-4.8-0.5-8c0.8,0.1,1.2,0.1,1.9,0.1
					c-0.1-0.8-0.2-2.5-0.2-2.5l-28.4,0c0,0-0.1,1.8-0.2,2.5c0.8-0.1,1.2-0.1,1.9-0.1c-0.3,3.2-0.4,4.8-0.5,8c-1.6,0.4-2.3,0.6-3.9,1
					c-0.3,0.1-0.4,0.4-0.3,0.6c2.7,6.5,4.5,10,7.7,17c0,0,0,0,0.1,0c0.9-1.6,2.6-2.6,4.6-2.5c2,0,3.8,1.2,4.8,2.8c0,0,0,0,0,0
					c1-1.6,2.8-2.8,4.8-2.8c2,0,3.8,1,4.6,2.5c0,0,0,0,0,0c3.3-7,5-10.5,7.7-17C870.2,18.4,870,18.1,869.7,18z M863.8,16.5
					c-4.2-1.1-6.3-1.6-10.5-2.7c-0.3-0.1-0.6-0.1-1,0c-4.2,1-6.3,1.6-10.5,2.7c0.1-2.1,0.1-3.2,0.2-5.3c0.1-1.3,1.2-2.4,2.5-2.5
					c6.6-0.3,10-0.3,16.6,0c1.3,0.1,2.4,1.2,2.5,2.5C863.7,13.3,863.8,14.4,863.8,16.5z"/>
			</g>
			<path fill="#ff9433" d="M31.8,16.6h-1c0-0.8-0.1-1.6-0.1-2.5c-0.2-3.5-3.2-6.7-6.5-6.9c-4.6-0.3-6.9-0.3-11.5,0
				C9.3,7.4,6.3,10.5,6.1,14C6.1,14.9,6,15.8,6,16.6H5c-0.6,0-1.1,0.5-1.1,1.1v3.8c0,0.6,0.5,1.1,1.1,1.1h0.9c0.1,2,0.2,4.1,0.4,6.8
				c0.1,1.5,1.4,2.9,2.9,3c0.1,0,0.2,0,0.4,0v2c0,0.6,0.5,1.1,1.1,1.1h1.9c0.6,0,1.1-0.5,1.1-1.1v-1.6c3.3,0.2,6,0.2,9.2,0v1.6
				c0,0.6,0.5,1.1,1.1,1.1H26c0.6,0,1.1-0.5,1.1-1.1v-2c0.1,0,0.2,0,0.4,0c1.4-0.1,2.7-1.5,2.9-3c0.2-2.7,0.4-4.8,0.4-6.8h1
				c0.6,0,1.1-0.5,1.1-1.1v-3.8C32.9,17.1,32.4,16.6,31.8,16.6z M11.1,27.7c-1,0-1.8-0.8-1.8-1.8c0-1,0.8-1.8,1.8-1.8
				c1,0,1.8,0.8,1.8,1.8C12.9,26.9,12.1,27.7,11.1,27.7z M25.6,27.7c-1,0-1.8-0.8-1.8-1.8c0-1,0.8-1.8,1.8-1.8c1,0,1.8,0.8,1.8,1.8
				C27.5,26.9,26.7,27.7,25.6,27.7z M28.3,22.4c0,0.1-0.1,0.3-0.3,0.3H8.7c-0.1,0-0.3-0.1-0.3-0.3V14c0-2.5,2-4.5,4.5-4.5h10.8
				c2.5,0,4.5,2,4.5,4.5V22.4z"/>
			<rect x="942.2" y="6.7" fill="#ff9433" width="1.8" height="7.6"/>
			<polygon fill="#ff9433" points="927.7,11.2 927.2,9.2 958.4,1.5 958.9,3.4 			"/>
			<rect x="936.6" y="13.8" fill="#ff9433" width="1.8" height="14.3"/>
			<rect x="947.8" y="13.8" fill="#ff9433" width="1.8" height="14.3"/>
			<g>
				<path fill="#ff9433" d="M954.7,12.8c-9.3-0.6-14-0.6-23.3,0c-1.9,0.1-3.7,1.8-3.9,3.7c-0.7,6-0.7,9,0,15c0.2,1.9,2,3.5,3.9,3.7
					c9.3,0.6,14,0.6,23.3,0c1.9-0.1,3.7-1.8,3.9-3.7c0.7-6,0.7-9,0-15C958.4,14.6,956.6,13,954.7,12.8z M956.5,23.8
					c0,0.6-0.5,1.2-1.2,1.2c-9.8,0.1-14.7,0.1-24.4,0c-0.7,0-1.2-0.5-1.2-1.2c0-3,0.1-4.5,0.4-7.4c0.1-0.6,0.6-1.2,1.3-1.2
					c9.4-0.5,14.1-0.5,23.6,0c0.6,0,1.2,0.6,1.3,1.2C956.4,19.3,956.5,20.8,956.5,23.8z"/>
			</g>
			<polygon fill="#ff9433" points="556.6,33.8 546.8,33.8 546.8,31.3 545,31.3 545,35.7 558.5,35.7 558.5,31.3 556.6,31.3 			"/>
			<path fill="#ff9433" d="M562.8,11C562.8,11,562.8,11,562.8,11c0-0.1,0-0.1,0-0.2c0,0,0,0,0,0c-0.4-2.4-5.2-5.1-11-5.1
				c-5.7,0-10.6,2.7-11,5.1c0,0,0,0,0,0c-0.5,7.2-0.5,8.1,0.1,15.3c0.1,1.3,1.1,2.5,2.3,2.6c6.9,0.8,10.3,0.8,17.1,0
				c1.1-0.1,2.2-1.3,2.3-2.6C563.3,19.1,563.3,18.2,562.8,11C562.8,11.1,562.8,11.1,562.8,11z M543.3,11.2L543.3,11.2
				c0.2-1.5,3.5-2.7,7.7-2.9v9.5h-6.9c-0.5,0-0.8-0.4-0.8-0.8V11.2z M545.2,23.7c-1.1,0-2-0.9-2-2c0-1.1,0.9-2,2-2c1.1,0,2,0.9,2,2
				C547.2,22.8,546.3,23.7,545.2,23.7z M558.4,23.7c-1.1,0-2-0.9-2-2c0-1.1,0.9-2,2-2c1.1,0,2,0.9,2,2
				C560.4,22.8,559.5,23.7,558.4,23.7z M560.4,11.3V17c0,0.4-0.4,0.8-0.8,0.8h-6.9V8.3c4.2,0.1,7.5,1.4,7.7,2.9h0V11.3
				C560.4,11.3,560.4,11.3,560.4,11.3C560.4,11.3,560.4,11.3,560.4,11.3z"/>
			<path fill="#ff9433" d="M568.6,9.9c-0.2-4.4-8.5-8.8-16.7-8.8c0,0,0,0,0,0c-8.2,0-16.5,4.4-16.7,8.8c-0.5,9.2-0.3,10.5,0.7,19.8
				l2.4-0.3c-1-9.2-1.2-10.2-0.7-19.4c0.1-2.2,6.2-6.6,14.3-6.6c0,0,0,0,0,0c8.1,0,14.2,4.3,14.3,6.6c0.5,9.2,0.4,10.2-0.7,19.4
				l2.4,0.3C568.9,20.5,569,19.1,568.6,9.9z"/>
			<path fill="#ff9433" d="M659.6,13h-1.4c0-0.8-0.1-1.6-0.1-2.5c-0.2-3.4-3.1-6.6-6.3-6.8c-4.5-0.3-6.7-0.3-11.2,0
				c-3.2,0.2-6.1,3.4-6.3,6.8c0,0.9-0.1,1.7-0.1,2.5h-1.4c-0.6,0-1,0.5-1,1v3.9c0,0.6,0.5,1,1,1h1.2c0,3.3,0.2,6.4,0.5,10.8
				c0.1,1.5,1.4,2.8,2.8,3c0.1,0,0.2,0,0.4,0v1.9c0,0.6,0.5,1.1,1.1,1.1h1.8c0.6,0,1.1-0.5,1.1-1.1v-1.5c3.2,0.2,5.8,0.2,9,0v1.5
				c0,0.6,0.5,1.1,1.1,1.1h1.8c0.6,0,1.1-0.5,1.1-1.1v-1.9c0.1,0,0.2,0,0.4,0c1.4-0.2,2.6-1.5,2.8-3c0.3-4.4,0.5-7.5,0.5-10.8h1.2
				c0.6,0,1-0.5,1-1V14C660.6,13.5,660.1,13,659.6,13z M641.7,5.5h9.1v2h-9.1V5.5z M638.5,29.3c-1,0-1.8-0.8-1.8-1.8
				c0-1,0.8-1.8,1.8-1.8s1.8,0.8,1.8,1.8C640.2,28.5,639.5,29.3,638.5,29.3z M653.9,29.3c-1,0-1.8-0.8-1.8-1.8c0-1,0.8-1.8,1.8-1.8
				s1.8,0.8,1.8,1.8C655.7,28.5,654.9,29.3,653.9,29.3z M656,13.2v10.2c0,0.5-0.4,1-0.9,1h-17.6c-0.5,0-0.9-0.4-0.9-1V13.1h0
				c0.2-1.9,4.5-3.5,9.7-3.5c5.3,0,9.5,1.5,9.7,3.5h0V13.2C656,13.2,656,13.2,656,13.2C656,13.2,656,13.2,656,13.2z"/>
			<path fill="#ff9433" d="M753.4,9.1c-0.1-0.3-0.4-0.6-0.8-0.6h-0.1h-1.2h-2.5c0-0.3,0-0.6-0.1-0.9c0,0,0,0,0,0c0,0,0,0,0,0
				c0-0.1,0-0.1,0-0.2c0,0,0,0,0,0c-0.4-3-6.1-6.2-12.7-6.2c-6.7,0-12.3,3.2-12.7,6.2c0,0,0,0,0,0c0,0.4,0,0.7-0.1,1.1h-2.5h-1.2
				h-0.1c-0.5,0-0.8,0.4-0.8,0.8v0.1v0.7V14c0,0.5,0.4,0.9,0.9,0.9h1.2c0.5,0,0.9-0.4,0.9-0.9V11h1.4c-0.3,6.6-0.2,10.9,0.4,18.4
				c0.1,1.6,1.3,3.1,2.6,3.2c0.4,0,0.7,0.1,1.1,0.1v1.8c0,0.6,0.5,1.1,1.1,1.1h1.9c0.6,0,1.1-0.5,1.1-1.1v-1.4
				c3.3,0.2,6.1,0.2,9.4,0v1.4c0,0.6,0.5,1.1,1.1,1.1h1.9c0.6,0,1.1-0.5,1.1-1.1v-1.8c0.4,0,0.7-0.1,1.1-0.1
				c1.3-0.2,2.5-1.6,2.6-3.2c0.6-7.5,0.7-11.8,0.4-18.4h1.5V14c0,0.5,0.4,0.9,0.9,0.9h1.2c0.5,0,0.9-0.4,0.9-0.9V9.5
				C753.5,9.3,753.4,9.2,753.4,9.1z M727.5,27.5c-1,0-1.9-0.8-1.9-1.9s0.8-1.9,1.9-1.9c1,0,1.9,0.8,1.9,1.9S728.5,27.5,727.5,27.5z
				 M736,21.1c-5.6,0-10.1-1.6-10.3-3.6h0v-0.1c0,0,0,0,0,0c0,0,0,0,0,0v-1.6c0,0,0,0,0,0V8.3h0c0.2-2,4.7-3.6,10.3-3.6
				c5.6,0,10.1,1.6,10.3,3.6h0v0.1c0,0,0,0,0,0c0,0,0,0,0,0v1.6c0,0,0,0,0,0v7.4h0C746.1,19.5,741.6,21.1,736,21.1z M744.5,27.5
				c-1,0-1.9-0.8-1.9-1.9s0.8-1.9,1.9-1.9c1,0,1.9,0.8,1.9,1.9S745.6,27.5,744.5,27.5z"/>
		</g>
		<g>
			<path fill="#ff9433" d="M-225,20.9c-0.8-2.7-1.3-4.1-2.3-6.8c0,0,0,0,0,0c0,0,0,0,0,0c0,0,0,0,0-0.1c0,0,0,0,0,0
				c-0.2-1.1-3.9-2.2-8.3-2.2c-4.4,0-8.1,1.1-8.3,2.2c0,0,0,0,0,0c-1,2.8-1.4,4.2-2.3,6.9c-1.6,0.3-2.9,1.7-2.8,3.5
				c0.1,2.1,0.1,3.2,0.3,5.4c0.2,1.5,1.2,2.8,2.5,3.2v1.8c0,0.6,0.5,1.1,1.1,1.1h1.7c0.6,0,1.1-0.5,1.1-1.1v-1.4
				c5,0.3,8.5,0.3,13.5,0v1.4c0,0.6,0.5,1.1,1.1,1.1h1.7c0.6,0,1.1-0.5,1.1-1.1V33c1.3-0.4,2.4-1.8,2.5-3.2c0.2-2.1,0.3-3.2,0.3-5.4
				C-222.1,22.6-223.4,21.2-225,20.9z M-242.2,15.9L-242.2,15.9c0.1-0.8,3-1.5,6.6-1.5c3.5,0,6.4,0.7,6.5,1.5h0v0c0,0,0,0,0,0
				c0,0,0,0,0,0l1.5,5.4c0,0.2-0.3,0.4-0.6,0.4l-14.9,0c-0.4,0-0.6-0.2-0.6-0.4L-242.2,15.9z M-244,27.4c-1,0-1.8-0.8-1.8-1.8
				c0-1,0.8-1.8,1.8-1.8c1,0,1.8,0.8,1.8,1.8C-242.2,26.6-243,27.4-244,27.4z M-232.2,30.7h-6.9v-2.3h6.9V30.7z M-227.3,27.4
				c-1,0-1.8-0.8-1.8-1.8c0-1,0.8-1.8,1.8-1.8c1,0,1.8,0.8,1.8,1.8C-225.4,26.6-226.3,27.4-227.3,27.4z"/>
			<g>
				<path fill="#ff9433" d="M-391.5,24.1c-0.2,0-0.4,0-0.6,0.1l-1.7-7.5c-0.2-0.8-0.9-0.8-0.9-0.8l-1.6,0c-0.5,0-1,0.4-1,1
					s0.4,1,1,1l0.8,0l0.7,3l-6.5,7.4l-1.6-6.1h0.6c0.5,0,0.9-0.4,0.9-0.9c0-0.5-0.4-0.9-0.9-0.9h-3.3c-0.5,0-0.9,0.4-0.9,0.9
					c0,0.5,0.4,0.9,0.9,0.9h0.8l1.8,7.1l-1.2,0c-0.4-2.8-2.8-5-5.8-5c-3.2,0-5.8,2.6-5.8,5.8c0,3.2,2.6,5.8,5.8,5.8
					c2.9,0,5.3-2.1,5.7-4.8l2.5,0c0,0,0,0,0,0c0.1,0,0.3,0,0.4-0.1c0,0,0.1,0,0.1-0.1c0.1,0,0.2-0.1,0.2-0.2c0,0,0,0,0,0l6.8-7.7
					l0.4,1.7c-2,0.9-3.4,2.9-3.4,5.3c0,3.2,2.6,5.8,5.8,5.8s5.8-2.6,5.8-5.8C-385.6,26.7-388.3,24.1-391.5,24.1z M-409.8,30.8l3.6,0
					c-0.4,1.7-2,3-3.8,3c-2.2,0-4-1.8-4-4s1.8-4,4-4c1.9,0,3.5,1.3,3.9,3.1l-3.6,0c0,0,0,0,0,0c-0.5,0-0.9,0.4-0.9,0.9
					C-410.7,30.4-410.3,30.8-409.8,30.8z M-391.5,33.9c-2.2,0-4-1.8-4-4c0-1.5,0.8-2.7,2-3.4l0.8,3.4c0.1,0.4,0.5,0.7,0.9,0.7
					c0.1,0,0.1,0,0.2,0c0.5-0.1,0.8-0.6,0.7-1.1l-0.8-3.6c0.1,0,0.1,0,0.2,0c2.2,0,4,1.8,4,4S-389.3,33.9-391.5,33.9z"/>
			</g>
			<g>
				<path fill="#ff9433" d="M-505.1,35.7c-3.4,0-6.2-2.8-6.2-6.2c0-3.4,2.8-6.2,6.2-6.2c3.4,0,6.2,2.8,6.2,6.2
					C-499,32.9-501.7,35.7-505.1,35.7z M-505.1,25.5c-2.3,0-4.1,1.8-4.1,4.1c0,2.3,1.8,4.1,4.1,4.1c2.3,0,4.1-1.8,4.1-4.1
					C-501,27.3-502.9,25.5-505.1,25.5z"/>
				<path fill="#ff9433" d="M-485.6,35.7c-3.4,0-6.2-2.8-6.2-6.2c0-3.4,2.8-6.2,6.2-6.2s6.2,2.8,6.2,6.2
					C-479.5,32.9-482.2,35.7-485.6,35.7z M-485.6,25.5c-2.3,0-4.1,1.8-4.1,4.1c0,2.3,1.8,4.1,4.1,4.1c2.3,0,4.1-1.8,4.1-4.1
					C-481.6,27.3-483.4,25.5-485.6,25.5z"/>
				<path fill="#ff9433" d="M-485.5,30.2c-0.5,0-0.9-0.3-1-0.8l-2.9-13.3c-0.1-0.6,0.2-1.1,0.8-1.2c0.6-0.1,1.1,0.2,1.2,0.8
					l2.9,13.3c0.1,0.6-0.2,1.1-0.8,1.2C-485.4,30.2-485.4,30.2-485.5,30.2z"/>
				<path fill="#ff9433" d="M-497.6,8.2c0.9,0,1.5,1.4,1.7,2.3c0.4,2.3,0.3,6.6,0.3,6.6c-0.1,0.4,0,0.8,0.3,1.1l2,4.4
					c0.2,0.3,0.5,1,0.3,1.6l-1.6,5.4c-0.2,0.6-0.5,1.1-1.2,1.1c0,0,0,0-0.1,0c-0.6,0-1-1.1-0.8-1.7l0.5-4.3c0.1-0.5,0-1-0.4-1.4
					l-3.9-3.5c-0.5-0.5-1.1-1.4-1.2-2.4c0,0,0.2-3.8,0.9-6C-500.1,9.7-498.4,8.2-497.6,8.2z"/>
				<path fill="#ff9433" d="M-487.1,18.7c-0.4-0.4-1.1-0.3-1.5,0.1l-3,3.4c0.3,0.6,0.5,1.4,0.3,2.1l0,0l0,0l-0.3,0.9l4.5-5.1
					C-486.6,19.7-486.6,19.1-487.1,18.7z"/>
				<path fill="#ff9433" d="M-497.5,24.7c0-0.3-0.1-0.6-0.4-0.8l-2.7-2.2l2.6,6.5C-498,28.1-497.6,25.7-497.5,24.7z"/>
				<circle fill="#ff9433" cx="-495.9" cy="4.8" r="2.9"/>
				<path fill="#ff9433" d="M-500.5,28.5l-4.5-0.1c-0.5,0-1,0.4-1,1s0.4,1,1,1l4.5,0.1V28.5z"/>
				<path fill="#ff9433" d="M-488.4,14.9l-1.6,0c-0.5,0-1,0.4-1,1c0,0.6,0.4,1,1,1l1.7,0V14.9z"/>
				<path fill="#ff9433" d="M-495.9,12.6c-0.2-1.6-0.1-2.6-0.5-3.6c1.7,1.5,5.2,4.9,5.2,4.9c0.3,0.3,0.3,0.8,0,1.1
					c-0.4,0.4-1.1,0.5-1.6,0.1l-2.8-2.5C-495.7,12.4-495.8,12.5-495.9,12.6z"/>
			</g>
			<g>
				<circle fill="#ff9433" cx="-586.1" cy="10.3" r="3.1"/>
				<path fill="#ff9433" d="M-587.9,14.3c0.7,0,1.8,1.1,2,2.1c0.7,2.2,0.9,4,0.9,5.5c0,0.3,0,0.7,0.1,1.1c0.3,1.4,1,2.7,1.6,4
					c0.6,1.4,1.4,2.9,1.4,2.9l1.8,3.9c0.2,0.6,0.5,1.2-0.3,1.4c-0.6,0.2-1.6-0.5-2.2-1.3l-6.9-7.6c-0.4-0.4-0.8-1.1-1-1.9
					c-0.4-2.6-0.3-4.6-0.2-6.1C-590.1,15-588.3,14.3-587.9,14.3z"/>
				<path fill="#ff9433" d="M-591.9,35.1l4.6-4.7l-3-3.2c0,0-2.1,4.3-2.7,5.7c-0.3,0.9-0.7,2-0.3,2.5
					C-592.7,36-592.3,35.5-591.9,35.1z"/>
				<path fill="#ff9433" d="M-590.3,20.6c0.3-1.9,0.6-3.8,1.2-5.1c-1.9,1.8-6.2,5.9-6.2,5.9c-0.4,0.3-0.4,0.9,0,1.2
					c0.5,0.5,1.4,0.9,1.9,0.4l2.7-2.5C-590.6,20.4-590.4,20.4-590.3,20.6z"/>
				<path fill="#ff9433" d="M-578.9,21.3c0,0-3.7-3.5-5.7-5.4c0.4,1.1,0.9,3,1.1,4.5c0.1,0,0.1,0,0.1,0.1l2.7,2.6
					c0.5,0.5,1.4,0.5,1.8-0.1C-578.4,22.7-578.5,21.7-578.9,21.3z"/>
			</g>
			<path fill="#ff9433" d="M-230.7,5.3h-5.9c-0.4-0.9-1.4-1.6-2.5-1.6c-1.5,0-2.8,1.2-2.8,2.8s1.2,2.8,2.8,2.8c1.1,0,2-0.7,2.5-1.6
				h5.9c0.5,0,0.8-0.4,0.8-0.8V6.2C-229.9,5.7-230.2,5.3-230.7,5.3z M-239.6,7.5c-0.5,0-1-0.4-1-1s0.4-1,1-1s1,0.4,1,1
				S-239,7.5-239.6,7.5z"/>
			<path fill="#ff9433" d="M-395.5,5.3h-5.9c-0.4-0.9-1.4-1.6-2.5-1.6c-1.5,0-2.8,1.2-2.8,2.8s1.2,2.8,2.8,2.8c1.1,0,2-0.7,2.5-1.6
				h5.9c0.5,0,0.8-0.4,0.8-0.8V6.2C-394.7,5.7-395.1,5.3-395.5,5.3z M-404.4,7.5c-0.5,0-1-0.4-1-1s0.4-1,1-1c0.5,0,1,0.4,1,1
				S-403.9,7.5-404.4,7.5z"/>
		</g>
	</g>
	<polygon fill="#ff9433" points="-315.1,34 -324.8,34 -324.8,31.5 -326.7,31.5 -326.7,35.9 -313.2,35.9 -313.2,31.5 -315.1,31.5 	
		"/>
	<path fill="#ff9433" d="M-308.9,11.4C-308.9,11.4-308.9,11.3-308.9,11.4c0-0.1,0-0.1,0-0.2c0,0,0,0,0,0c-0.4-2.4-5.2-5.1-10.9-5.1
		c-5.7,0-10.6,2.7-10.9,5.1c0,0,0,0,0,0c-0.5,7.2-0.5,8.1,0.1,15.3c0.1,1.3,1.1,2.5,2.3,2.6c6.8,0.8,10.2,0.8,17.1,0
		c1.1-0.1,2.2-1.3,2.3-2.6C-308.4,19.4-308.4,18.5-308.9,11.4C-308.9,11.4-308.9,11.4-308.9,11.4z M-328.4,11.5L-328.4,11.5
		c0.2-1.5,3.5-2.7,7.7-2.8v9.4h-6.8c-0.5,0-0.8-0.4-0.8-0.8V11.5z M-326.4,24c-1.1,0-2-0.9-2-2c0-1.1,0.9-2,2-2s2,0.9,2,2
		C-324.4,23.1-325.3,24-326.4,24z M-313.3,24c-1.1,0-2-0.9-2-2c0-1.1,0.9-2,2-2c1.1,0,2,0.9,2,2C-311.3,23.1-312.2,24-313.3,24z
		 M-311.3,11.6v5.7c0,0.4-0.4,0.8-0.8,0.8h-6.8V8.7c4.2,0.1,7.5,1.4,7.6,2.8h0V11.6C-311.3,11.6-311.3,11.6-311.3,11.6
		C-311.3,11.6-311.3,11.6-311.3,11.6z"/>
	<path fill="#ff9433" d="M-303.9,29.9h-2.5V9c-0.3-1.8-5.5-5.2-13.4-5.2S-333,7.2-333.2,9v20.9h-2.5l0-21.1
		c0.4-4.1,7.7-7.5,15.9-7.5s15.5,3.4,15.9,7.5l0,0.1V29.9z"/>
</g>
</svg>
